<mxfile host="app.diagrams.net" modified="2023-03-30T03:52:15.866Z" agent="Mozilla/5.0 (Windows NT 10.0; Win64; x64) AppleWebKit/537.36 (KHTML, like Gecko) Chrome/111.0.0.0 Safari/537.36 Edg/111.0.1661.54" version="21.1.1" etag="tjOMhmK0qfssOLLZ2EVW" type="github">
  <diagram name="第 1 页" id="AO-MVOW5Xp6aaSSVVrF2">
    <mxGraphModel>
      <root>
        <mxCell id="0" />
        <mxCell id="1" parent="0" />
      </root>
    </mxGraphModel>
  </diagram>
</mxfile>
